# xmcd CD database file
#
# Track frame offsets:
#	150
#	22840
#	47192
#	69681
#	94653
#	121254
#	143650
#	169076
#	195489
#	219518
#	242777
#	267160
#	293458
#	312894
#
# Disc length: 4417 seconds
#
# Revision: 0
# Processed by: cddbd v1.5.2PL0 Copyright (c) Steve Scherf et al.
# Submitted via: CDex 1.70beta2
#
DISCID=c0113f0e
DTITLE=Golding, William - Herr der Fliegen
DYEAR=2009
DGENRE=Hoerbuch
TTITLE0=41
TTITLE1=42
TTITLE2=43
TTITLE3=44
TTITLE4=45
TTITLE5=46
TTITLE6=47
TTITLE7=48
TTITLE8=49
TTITLE9=50
TTITLE10=51
TTITLE11=52
TTITLE12=53
TTITLE13=54
EXTD=YEAR: 2009
EXTT0=
EXTT1=
EXTT2=
EXTT3=
EXTT4=
EXTT5=
EXTT6=
EXTT7=
EXTT8=
EXTT9=
EXTT10=
EXTT11=
EXTT12=
EXTT13=
PLAYORDER=
